# Blender v2.79 (sub 0) OBJ File: 'CylinderTestMesh.blend'
# www.blender.org
mtllib CylinderMeshTest.mtl
o Plane
v 0.900513 0.199913 -0.395625
v -0.474487 0.199913 -0.395625
v 0.900513 0.199913 0.979375
v -0.474487 0.199913 0.979375
v -0.161987 0.199913 -0.583125
v 0.213013 0.199913 -0.645625
v 0.588013 0.199913 -0.583125
v 1.088013 0.199913 -0.083125
v 1.150513 0.199913 0.291875
v 1.088013 0.199913 0.666875
v 0.588013 0.199913 1.166875
v 0.213013 0.199913 1.229375
v -0.161987 0.199913 1.166875
v -0.661987 0.199913 0.666875
v -0.724487 0.199913 0.291875
v -0.661987 0.199913 -0.083125
v -0.224487 0.199913 -0.145625
v 0.650513 0.199913 -0.145625
v 0.650513 0.199913 0.729375
v -0.224487 0.199913 0.729375
v -0.255737 0.199913 0.291875
v 0.213013 0.199913 -0.176875
v 0.681763 0.199913 0.291875
v 0.213013 0.199913 0.760625
v 0.213013 0.199913 0.291875
v 0.213013 4.331542 0.291875
v 0.213013 4.331542 0.760625
v 0.681763 4.331542 0.291875
v 0.213013 4.331542 -0.176875
v -0.255737 4.331542 0.291875
v -0.224487 4.331542 0.729375
v 0.650513 4.331542 0.729375
v 0.650513 4.331542 -0.145625
v -0.224487 4.331542 -0.145625
v -0.661987 4.331542 -0.083125
v -0.724487 4.331542 0.291875
v -0.661987 4.331542 0.666875
v -0.161987 4.331542 1.166875
v 0.213013 4.331542 1.229375
v 0.588013 4.331542 1.166875
v 1.088013 4.331542 0.666875
v 1.150513 4.331542 0.291875
v 1.088013 4.331542 -0.083125
v 0.588013 4.331542 -0.583125
v 0.213013 4.331542 -0.645625
v -0.161987 4.331542 -0.583125
v -0.474487 4.331542 0.979375
v 0.900513 4.331542 0.979375
v -0.474487 4.331542 -0.395625
v 0.900513 4.331542 -0.395625
vn 0.0000 -1.0000 0.0000
vn 0.0000 1.0000 0.0000
vn 0.9864 0.0000 -0.1644
vn -0.9864 0.0000 0.1644
vn 0.9864 0.0000 0.1644
vn -0.9864 0.0000 -0.1644
vn 0.8575 0.0000 0.5145
vn -0.5145 0.0000 -0.8575
vn -0.8575 0.0000 -0.5145
vn 0.5145 0.0000 0.8575
vn -0.1644 0.0000 -0.9864
vn 0.1644 0.0000 0.9864
vn 0.1644 0.0000 -0.9864
vn -0.1644 0.0000 0.9864
vn 0.5145 0.0000 -0.8575
vn -0.5145 0.0000 0.8575
vn 0.8575 0.0000 -0.5145
vn -0.8575 0.0000 0.5145
usemtl None
s off
f 17//1 2//1 5//1
f 22//1 5//1 6//1
f 21//1 16//1 17//1
f 25//1 17//1 22//1
f 18//1 1//1 8//1
f 23//1 8//1 9//1
f 22//1 7//1 18//1
f 25//1 18//1 23//1
f 19//1 3//1 11//1
f 24//1 11//1 12//1
f 23//1 10//1 19//1
f 25//1 19//1 24//1
f 20//1 4//1 14//1
f 21//1 14//1 15//1
f 24//1 13//1 20//1
f 25//1 20//1 21//1
f 26//2 31//2 27//2
f 27//2 38//2 39//2
f 30//2 37//2 31//2
f 31//2 47//2 38//2
f 26//2 32//2 28//2
f 28//2 41//2 42//2
f 27//2 40//2 32//2
f 32//2 48//2 41//2
f 26//2 33//2 29//2
f 29//2 44//2 45//2
f 28//2 43//2 33//2
f 33//2 50//2 44//2
f 26//2 34//2 30//2
f 30//2 35//2 36//2
f 29//2 46//2 34//2
f 34//2 49//2 35//2
f 8//3 42//3 9//3
f 14//4 36//4 15//4
f 9//5 41//5 10//5
f 15//6 35//6 16//6
f 10//7 48//7 3//7
f 2//8 46//8 5//8
f 16//9 49//9 2//9
f 3//10 40//10 11//10
f 5//11 45//11 6//11
f 11//12 39//12 12//12
f 6//13 44//13 7//13
f 12//14 38//14 13//14
f 7//15 50//15 1//15
f 13//16 47//16 4//16
f 1//17 43//17 8//17
f 4//18 37//18 14//18
f 17//1 16//1 2//1
f 22//1 17//1 5//1
f 21//1 15//1 16//1
f 25//1 21//1 17//1
f 18//1 7//1 1//1
f 23//1 18//1 8//1
f 22//1 6//1 7//1
f 25//1 22//1 18//1
f 19//1 10//1 3//1
f 24//1 19//1 11//1
f 23//1 9//1 10//1
f 25//1 23//1 19//1
f 20//1 13//1 4//1
f 21//1 20//1 14//1
f 24//1 12//1 13//1
f 25//1 24//1 20//1
f 26//2 30//2 31//2
f 27//2 31//2 38//2
f 30//2 36//2 37//2
f 31//2 37//2 47//2
f 26//2 27//2 32//2
f 28//2 32//2 41//2
f 27//2 39//2 40//2
f 32//2 40//2 48//2
f 26//2 28//2 33//2
f 29//2 33//2 44//2
f 28//2 42//2 43//2
f 33//2 43//2 50//2
f 26//2 29//2 34//2
f 30//2 34//2 35//2
f 29//2 45//2 46//2
f 34//2 46//2 49//2
f 8//3 43//3 42//3
f 14//4 37//4 36//4
f 9//5 42//5 41//5
f 15//6 36//6 35//6
f 10//7 41//7 48//7
f 2//8 49//8 46//8
f 16//9 35//9 49//9
f 3//10 48//10 40//10
f 5//11 46//11 45//11
f 11//12 40//12 39//12
f 6//13 45//13 44//13
f 12//14 39//14 38//14
f 7//15 44//15 50//15
f 13//16 38//16 47//16
f 1//17 50//17 43//17
f 4//18 47//18 37//18
