# Blender v2.79 (sub 0) OBJ File: 'CylinderTestMesh.blend'
# www.blender.org
mtllib CylinderMeshTest.mtl
o Cylinder_Cylinder.001
v -0.924188 0.340536 -1.381639
v -0.924188 2.340536 -1.381639
v -0.729098 0.340536 -1.362424
v -0.729098 2.340536 -1.362424
v -0.541505 0.340536 -1.305518
v -0.541505 2.340536 -1.305518
v -0.368618 0.340536 -1.213108
v -0.368618 2.340536 -1.213108
v -0.217081 0.340536 -1.088745
v -0.217081 2.340536 -1.088745
v -0.092719 0.340536 -0.937209
v -0.092719 2.340536 -0.937209
v -0.000309 0.340536 -0.764322
v -0.000309 2.340536 -0.764322
v 0.056597 0.340536 -0.576729
v 0.056597 2.340536 -0.576729
v 0.075812 0.340536 -0.381639
v 0.075812 2.340536 -0.381639
v 0.056597 0.340536 -0.186548
v 0.056597 2.340536 -0.186548
v -0.000309 0.340536 0.001045
v -0.000309 2.340536 0.001045
v -0.092719 0.340536 0.173932
v -0.092719 2.340536 0.173932
v -0.217081 0.340536 0.325468
v -0.217081 2.340536 0.325468
v -0.368618 0.340536 0.449831
v -0.368618 2.340536 0.449831
v -0.541505 0.340536 0.542241
v -0.541505 2.340536 0.542241
v -0.729098 0.340536 0.599147
v -0.729098 2.340536 0.599147
v -0.924188 0.340536 0.618362
v -0.924188 2.340536 0.618362
v -1.119279 0.340536 0.599147
v -1.119279 2.340536 0.599147
v -1.306872 0.340536 0.542241
v -1.306872 2.340536 0.542241
v -1.479759 0.340536 0.449831
v -1.479759 2.340536 0.449831
v -1.631295 0.340536 0.325468
v -1.631295 2.340536 0.325468
v -1.755658 0.340536 0.173931
v -1.755658 2.340536 0.173931
v -1.848068 0.340536 0.001044
v -1.848068 2.340536 0.001044
v -1.904974 0.340536 -0.186549
v -1.904974 2.340536 -0.186549
v -1.924188 0.340536 -0.381639
v -1.924188 2.340536 -0.381639
v -1.904973 0.340536 -0.576730
v -1.904973 2.340536 -0.576730
v -1.848067 0.340536 -0.764323
v -1.848067 2.340536 -0.764323
v -1.755657 0.340536 -0.937210
v -1.755657 2.340536 -0.937210
v -1.631294 0.340536 -1.088746
v -1.631294 2.340536 -1.088746
v -1.479757 0.340536 -1.213109
v -1.479757 2.340536 -1.213109
v -1.306870 0.340536 -1.305519
v -1.306870 2.340536 -1.305519
v -1.119277 0.340536 -1.362424
v -1.119277 2.340536 -1.362424
vt 0.812425 0.318864
vt 0.781183 0.000120
vt 0.812426 0.000120
vt 0.781183 0.318864
vt 0.749941 0.000120
vt 0.749941 0.318864
vt 0.718698 0.000120
vt 0.718698 0.318864
vt 0.687456 0.000120
vt 0.687456 0.318864
vt 0.656213 0.000120
vt 0.656213 0.318864
vt 0.624971 0.000120
vt 0.624971 0.318864
vt 0.593728 0.000120
vt 0.593729 0.318864
vt 0.562486 0.000120
vt 0.562486 0.318864
vt 0.531243 0.000120
vt 0.531244 0.318864
vt 0.500000 0.000120
vt 0.500002 0.318864
vt 0.468758 0.000120
vt 0.468759 0.318864
vt 0.437515 0.000121
vt 0.437517 0.318865
vt 0.406273 0.000121
vt 0.406274 0.318865
vt 0.375030 0.000121
vt 0.375032 0.318865
vt 0.343788 0.000121
vt 0.343790 0.318865
vt 0.312545 0.000121
vt 0.312547 0.318865
vt 0.281303 0.000121
vt 0.281305 0.318866
vt 0.250060 0.000122
vt 0.250062 0.318866
vt 0.218818 0.000122
vt 0.218820 0.318866
vt 0.187575 0.000122
vt 0.187577 0.318866
vt 0.156333 0.000122
vt 0.156335 0.318866
vt 0.125090 0.000122
vt 0.125093 0.318867
vt 0.093848 0.000123
vt 0.093850 0.318867
vt 0.062605 0.000123
vt 0.062608 0.318867
vt 0.031362 0.000123
vt 0.031365 0.318868
vt 0.000120 0.000123
vt 0.999879 0.318864
vt 0.968638 0.000120
vt 0.999880 0.000120
vt 0.968637 0.318864
vt 0.937395 0.000120
vt 0.937394 0.318864
vt 0.906153 0.000120
vt 0.906152 0.318864
vt 0.874910 0.000120
vt 0.323665 0.523977
vt 0.429911 0.325203
vt 0.628685 0.431450
vt 0.874910 0.318864
vt 0.843668 0.000120
vt 0.843667 0.318864
vt 0.311235 0.431449
vt 0.204988 0.630222
vt 0.006215 0.523975
vt 0.000123 0.318868
vt 0.522438 0.630222
vt 0.491796 0.636317
vt 0.460553 0.636317
vt 0.429912 0.630222
vt 0.401047 0.618266
vt 0.375070 0.600909
vt 0.352978 0.578817
vt 0.335621 0.552840
vt 0.317570 0.493335
vt 0.317570 0.462092
vt 0.323665 0.431450
vt 0.335621 0.402585
vt 0.352978 0.376608
vt 0.375070 0.354516
vt 0.401047 0.337159
vt 0.460553 0.319108
vt 0.491796 0.319108
vt 0.522438 0.325203
vt 0.551303 0.337159
vt 0.577280 0.354516
vt 0.599372 0.376608
vt 0.616729 0.402586
vt 0.634780 0.462092
vt 0.634780 0.493334
vt 0.628684 0.523976
vt 0.616728 0.552840
vt 0.599371 0.578817
vt 0.577279 0.600909
vt 0.551302 0.618266
vt 0.112462 0.325203
vt 0.143104 0.319108
vt 0.174347 0.319108
vt 0.204989 0.325203
vt 0.233853 0.337159
vt 0.259830 0.354516
vt 0.281922 0.376608
vt 0.299279 0.402585
vt 0.317330 0.462091
vt 0.317330 0.493333
vt 0.311235 0.523975
vt 0.299279 0.552839
vt 0.281922 0.578817
vt 0.259830 0.600908
vt 0.233852 0.618266
vt 0.174346 0.636317
vt 0.143103 0.636317
vt 0.112461 0.630222
vt 0.083597 0.618266
vt 0.057620 0.600908
vt 0.035528 0.578816
vt 0.018171 0.552839
vt 0.000120 0.493333
vt 0.000120 0.462090
vt 0.006215 0.431448
vt 0.018171 0.402584
vt 0.035529 0.376607
vt 0.057621 0.354516
vt 0.083598 0.337158
vn 0.0980 0.0000 -0.9952
vn 0.2903 0.0000 -0.9569
vn 0.4714 0.0000 -0.8819
vn 0.6344 0.0000 -0.7730
vn 0.7730 0.0000 -0.6344
vn 0.8819 0.0000 -0.4714
vn 0.9569 0.0000 -0.2903
vn 0.9952 0.0000 -0.0980
vn 0.9952 0.0000 0.0980
vn 0.9569 0.0000 0.2903
vn 0.8819 0.0000 0.4714
vn 0.7730 0.0000 0.6344
vn 0.6344 0.0000 0.7730
vn 0.4714 0.0000 0.8819
vn 0.2903 0.0000 0.9569
vn 0.0980 0.0000 0.9952
vn -0.0980 0.0000 0.9952
vn -0.2903 0.0000 0.9569
vn -0.4714 0.0000 0.8819
vn -0.6344 0.0000 0.7730
vn -0.7730 0.0000 0.6344
vn -0.8819 0.0000 0.4714
vn -0.9569 0.0000 0.2903
vn -0.9952 0.0000 0.0980
vn -0.9952 0.0000 -0.0980
vn -0.9569 0.0000 -0.2903
vn -0.8819 0.0000 -0.4714
vn -0.7730 0.0000 -0.6344
vn -0.6344 0.0000 -0.7730
vn -0.4714 0.0000 -0.8819
vn 0.0000 1.0000 -0.0000
vn -0.2903 0.0000 -0.9569
vn -0.0980 0.0000 -0.9952
vn 0.0000 -1.0000 0.0000
usemtl None
s off
f 2/1/1 3/2/1 1/3/1
f 4/4/2 5/5/2 3/2/2
f 6/6/3 7/7/3 5/5/3
f 8/8/4 9/9/4 7/7/4
f 10/10/5 11/11/5 9/9/5
f 12/12/6 13/13/6 11/11/6
f 14/14/7 15/15/7 13/13/7
f 16/16/8 17/17/8 15/15/8
f 18/18/9 19/19/9 17/17/9
f 20/20/10 21/21/10 19/19/10
f 22/22/11 23/23/11 21/21/11
f 24/24/12 25/25/12 23/23/12
f 26/26/13 27/27/13 25/25/13
f 28/28/14 29/29/14 27/27/14
f 30/30/15 31/31/15 29/29/15
f 32/32/16 33/33/16 31/31/16
f 34/34/17 35/35/17 33/33/17
f 36/36/18 37/37/18 35/35/18
f 38/38/19 39/39/19 37/37/19
f 40/40/20 41/41/20 39/39/20
f 42/42/21 43/43/21 41/41/21
f 44/44/22 45/45/22 43/43/22
f 46/46/23 47/47/23 45/45/23
f 48/48/24 49/49/24 47/47/24
f 50/50/25 51/51/25 49/49/25
f 52/52/26 53/53/26 51/51/26
f 54/54/27 55/55/27 53/56/27
f 56/57/28 57/58/28 55/55/28
f 58/59/29 59/60/29 57/58/29
f 60/61/30 61/62/30 59/60/30
f 54/63/31 38/64/31 22/65/31
f 62/66/32 63/67/32 61/62/32
f 64/68/33 1/3/33 63/67/33
f 15/69/34 31/70/34 47/71/34
f 2/1/1 4/4/1 3/2/1
f 4/4/2 6/6/2 5/5/2
f 6/6/3 8/8/3 7/7/3
f 8/8/4 10/10/4 9/9/4
f 10/10/5 12/12/5 11/11/5
f 12/12/6 14/14/6 13/13/6
f 14/14/7 16/16/7 15/15/7
f 16/16/8 18/18/8 17/17/8
f 18/18/9 20/20/9 19/19/9
f 20/20/10 22/22/10 21/21/10
f 22/22/11 24/24/11 23/23/11
f 24/24/12 26/26/12 25/25/12
f 26/26/13 28/28/13 27/27/13
f 28/28/14 30/30/14 29/29/14
f 30/30/15 32/32/15 31/31/15
f 32/32/16 34/34/16 33/33/16
f 34/34/17 36/36/17 35/35/17
f 36/36/18 38/38/18 37/37/18
f 38/38/19 40/40/19 39/39/19
f 40/40/20 42/42/20 41/41/20
f 42/42/21 44/44/21 43/43/21
f 44/44/22 46/46/22 45/45/22
f 46/46/23 48/48/23 47/47/23
f 48/48/24 50/50/24 49/49/24
f 50/50/25 52/52/25 51/51/25
f 52/52/26 54/72/26 53/53/26
f 54/54/27 56/57/27 55/55/27
f 56/57/28 58/59/28 57/58/28
f 58/59/29 60/61/29 59/60/29
f 60/61/30 62/66/30 61/62/30
f 6/73/31 4/74/31 2/75/31
f 2/75/31 64/76/31 6/73/31
f 64/76/31 62/77/31 6/73/31
f 62/77/31 60/78/31 58/79/31
f 58/79/31 56/80/31 54/63/31
f 54/63/31 52/81/31 50/82/31
f 50/82/31 48/83/31 54/63/31
f 48/83/31 46/84/31 54/63/31
f 46/84/31 44/85/31 38/64/31
f 44/85/31 42/86/31 38/64/31
f 42/86/31 40/87/31 38/64/31
f 38/64/31 36/88/31 34/89/31
f 34/89/31 32/90/31 30/91/31
f 30/91/31 28/92/31 26/93/31
f 26/93/31 24/94/31 22/65/31
f 22/65/31 20/95/31 18/96/31
f 18/96/31 16/97/31 22/65/31
f 16/97/31 14/98/31 22/65/31
f 14/98/31 12/99/31 10/100/31
f 10/100/31 8/101/31 6/73/31
f 62/77/31 58/79/31 6/73/31
f 58/79/31 54/63/31 6/73/31
f 38/64/31 34/89/31 22/65/31
f 34/89/31 30/91/31 22/65/31
f 30/91/31 26/93/31 22/65/31
f 14/98/31 10/100/31 22/65/31
f 10/100/31 6/73/31 22/65/31
f 54/63/31 46/84/31 38/64/31
f 6/73/31 54/63/31 22/65/31
f 62/66/32 64/68/32 63/67/32
f 64/68/33 2/1/33 1/3/33
f 63/102/34 1/103/34 3/104/34
f 3/104/34 5/105/34 7/106/34
f 7/106/34 9/107/34 11/108/34
f 11/108/34 13/109/34 7/106/34
f 13/109/34 15/69/34 7/106/34
f 15/69/34 17/110/34 19/111/34
f 19/111/34 21/112/34 15/69/34
f 21/112/34 23/113/34 15/69/34
f 23/113/34 25/114/34 31/70/34
f 25/114/34 27/115/34 31/70/34
f 27/115/34 29/116/34 31/70/34
f 31/70/34 33/117/34 35/118/34
f 35/118/34 37/119/34 39/120/34
f 39/120/34 41/121/34 43/122/34
f 43/122/34 45/123/34 47/71/34
f 47/71/34 49/124/34 51/125/34
f 51/125/34 53/126/34 55/127/34
f 55/127/34 57/128/34 63/102/34
f 57/128/34 59/129/34 63/102/34
f 59/129/34 61/130/34 63/102/34
f 63/102/34 3/104/34 7/106/34
f 31/70/34 35/118/34 47/71/34
f 35/118/34 39/120/34 47/71/34
f 39/120/34 43/122/34 47/71/34
f 47/71/34 51/125/34 63/102/34
f 51/125/34 55/127/34 63/102/34
f 63/102/34 7/106/34 15/69/34
f 15/69/34 23/113/34 31/70/34
f 63/102/34 15/69/34 47/71/34
